<?xml version="1.0" encoding="utf-8"?>
<!-- Generator: Adobe Illustrator 21.1.0, SVG Export Plug-In . SVG Version: 6.00 Build 0)  -->
<svg version="1.1" id="Camada_1" xmlns="http://www.w3.org/2000/svg" xmlns:xlink="http://www.w3.org/1999/xlink" x="0px" y="0px"
	 viewBox="0 0 1105.3 308" style="enable-background:new 0 0 1105.3 308;" xml:space="preserve">
<style type="text/css">
	.st0{fill-rule:evenodd;clip-rule:evenodd;fill:#273843;}
	.st1{fill-rule:evenodd;clip-rule:evenodd;fill:#FFFFFF;}
	.st2{fill-rule:evenodd;clip-rule:evenodd;fill:#6EB1A5;}
	.st3{fill-rule:evenodd;clip-rule:evenodd;fill:#98C9CC;}
	.st4{fill-rule:evenodd;clip-rule:evenodd;fill:#429E7F;}
	.st5{fill-rule:evenodd;clip-rule:evenodd;fill:#B0D6DB;}
	.st6{fill-rule:evenodd;clip-rule:evenodd;fill:#57A999;}
	.st7{fill-rule:evenodd;clip-rule:evenodd;fill:#84C0C5;}
	.st8{fill:#273843;stroke:#263742;stroke-miterlimit:10;}
	.st9{fill:#FFFFFF;}
	.st10{fill-rule:evenodd;clip-rule:evenodd;fill:#6D6E70;}
	.st11{fill-rule:evenodd;clip-rule:evenodd;fill:#588F85;}
	.st12{fill:#FFFFFF;stroke:#FFFFFF;stroke-miterlimit:10;}
	.st13{fill-rule:evenodd;clip-rule:evenodd;fill:none;stroke:#FFFFFF;stroke-width:2.8346;stroke-miterlimit:22.9256;}
</style>
<g>
	<g>
		<path class="st0" d="M838.8,165.7c-19.1,0-23.8-12.9-23.8-26.4c0-15.2,7.4-25.8,24.5-25.8c3.4,0,9.5,1.2,13,2.1l-3.5,9.7
			c-3-1.3-6.1-2.8-9.4-2.8c-6.7,0-12.6,2.5-12.6,16.9c0,12,2.9,17.4,12,17.4c3.4,0,4.8-0.1,6.9-1.4v-9.7h-11v-9h21.3v24.5
			C851.2,164.3,846.9,165.7,838.8,165.7z"/>
		<polygon class="st0" points="862,164.1 862,114.5 873.6,114.5 873.6,154.9 893.2,154.9 893.2,164.1 		"/>
		<path class="st0" d="M918.6,165.7c-18.5,0-24.4-11.2-24.4-26.1c0-14.5,6.4-26.1,24.4-26.1c17.6,0,24.1,10.7,24.1,26.1
			C942.8,154.2,936.6,165.7,918.6,165.7L918.6,165.7z M918.6,122.4L918.6,122.4c-7.8,0-12.3,4.1-12.3,17.1
			c0,13.9,4.4,17.2,12.3,17.2c8.3,0,12.1-5,12.1-17.2C930.7,126.3,926.2,122.4,918.6,122.4z"/>
		<path class="st0" d="M969.4,164.6l-22.1-0.4l0.9-49.6l19.5,0.3c9,0.2,16.6,3.6,16.5,14.2c-0.1,5.2-3.5,8.4-8.1,9.5
			c6.1,0.7,10.1,4.4,10,11.4C985.9,161.5,977.9,164.8,969.4,164.6L969.4,164.6z M967.5,124L967.5,124l-7.9-0.1l-0.2,10.7l9,0.2
			c2.4,0,3.9-2,3.9-5.5C972.4,127.6,971.8,124,967.5,124L967.5,124z M968.4,143.5L968.4,143.5l-9.1-0.2l-0.2,12.1l10,0.2
			c2.4,0,5.1-1.6,5.2-5.7C974.3,145.5,971.7,143.6,968.4,143.5z"/>
		<g>
			<defs>
				<path id="SVGID_1_" d="M969.4,164.6l-22.1-0.4l0.9-49.6l19.5,0.3c9,0.2,16.6,3.6,16.5,14.2c-0.1,5.2-3.5,8.4-8.1,9.5
					c6.1,0.7,10.1,4.4,10,11.4C985.9,161.5,977.9,164.8,969.4,164.6L969.4,164.6z M967.5,124L967.5,124l-7.9-0.1l-0.2,10.7l9,0.2
					c2.4,0,3.9-2,3.9-5.5C972.4,127.6,971.8,124,967.5,124L967.5,124z M968.4,143.5L968.4,143.5l-9.1-0.2l-0.2,12.1l10,0.2
					c2.4,0,5.1-1.6,5.2-5.7C974.3,145.5,971.7,143.6,968.4,143.5z"/>
			</defs>
			<clipPath id="SVGID_2_">
				<use xlink:href="#SVGID_1_"  style="overflow:visible;"/>
			</clipPath>
		</g>
		<path class="st0" d="M1023,164.1l-4-12.5h-16.4l-4.1,12.5H986l20.2-49.6h11l18.7,49.6H1023L1023,164.1z M1011.1,127.1
			L1011.1,127.1l-5.3,15.7h10.2L1011.1,127.1z"/>
		<polygon class="st0" points="1039.2,164.1 1039.2,114.5 1050.9,114.5 1050.9,154.9 1070.5,154.9 1070.5,164.1 		"/>
	</g>
	<g>
		<path class="st1" d="M956.1,222.3l-4-12.5h-16.4l-4.1,12.5h-12.5l20.2-49.6h11l18.7,49.6H956.1L956.1,222.3z M944.3,185.3
			L944.3,185.3L939,201h10.2L944.3,185.3z"/>
		<path class="st1" d="M863.5,203.7h-8.1v18.6h-11.6v-49.6h18.9c10.1,0,18,3.4,18,15.2C880.7,199.8,873.5,203.7,863.5,203.7
			L863.5,203.7z M862.5,181.7L862.5,181.7h-7.1v13h7.5c2.8,0,6-1.5,6-6.7C868.9,181.7,865.1,181.7,862.5,181.7z"/>
		<polygon class="st1" points="885,222.3 885,172.7 915.4,172.7 915.4,181.7 896.6,181.7 896.6,192.2 913.8,192.2 913.8,201.2 
			896.6,201.2 896.6,213.3 916.1,213.3 916.1,222.3 		"/>
		<path class="st1" d="M956.1,222.3l-4-12.5h-16.4l-4.1,12.5h-12.5l20.2-49.6h11l18.7,49.6H956.1L956.1,222.3z M944.3,185.3
			L944.3,185.3L939,201h10.2L944.3,185.3z"/>
		<path class="st1" d="M991.3,223.2c-17.5,0-23.9-10.3-23.9-26.3c0-13.8,5.7-25.9,24.1-25.9c4.3,0,9.9,0.8,13.6,2.1l-3.5,9.7
			c-3.2-1.4-6.4-2.8-10.1-2.8c-8.6,0-12.1,5.4-12.1,16.9c0,12.2,3.2,17.4,11.6,17.4c4.3,0,7.1-1.6,11.1-3.2l3.5,9.7
			C1001.4,222.3,997.3,223.2,991.3,223.2z"/>
		<g>
			<defs>
				<path id="SVGID_3_" d="M991.3,223.2c-17.5,0-23.9-10.3-23.9-26.3c0-13.8,5.7-25.9,24.1-25.9c4.3,0,9.9,0.8,13.6,2.1l-3.5,9.7
					c-3.2-1.4-6.4-2.8-10.1-2.8c-8.6,0-12.1,5.4-12.1,16.9c0,12.2,3.2,17.4,11.6,17.4c4.3,0,7.1-1.6,11.1-3.2l3.5,9.7
					C1001.4,222.3,997.3,223.2,991.3,223.2z"/>
			</defs>
			<clipPath id="SVGID_4_">
				<use xlink:href="#SVGID_3_"  style="overflow:visible;"/>
			</clipPath>
		</g>
		<polygon class="st1" points="1010.6,222.3 1010.6,172.7 1041,172.7 1041,181.7 1022.3,181.7 1022.3,192.2 1039.4,192.2 
			1039.4,201.2 1022.3,201.2 1022.3,213.3 1041.7,213.3 1041.7,222.3 		"/>
	</g>
	<g>
		<path class="st1" d="M978.7,65.7c-7.9-5.7-19.4-7.6-30.9-4.5c-11.5,3.1-20.5,10.5-24.5,19.4c-7.9-5.7-19.4-7.6-30.9-4.5
			c-4.7,1.3-9.1,3.3-12.9,5.9c1.9-9,6.5-17.8,13.4-25.9c11.2-13.1,27.5-23,46-27.9c18.5-5,37.6-4.5,53.8,1.2
			c10.1,3.6,18.4,9,24.6,15.8c-4.6-0.4-9.4,0-14.1,1.3C991.8,49.4,982.7,56.8,978.7,65.7L978.7,65.7z M1035.5,57.9
			c0-0.1,0.1-0.2,0.1-0.2c0-0.1,0.1-0.2,0.1-0.3c0-0.1,0.1-0.1,0.1-0.2c0-0.1,0.1-0.2,0.1-0.3c0-0.1,0-0.1,0.1-0.2
			c0-0.1,0.1-0.2,0.1-0.3c0-0.1,0-0.2,0-0.2c0-0.1,0-0.2,0-0.3c0-0.1,0-0.2,0-0.3c0-0.1,0-0.2,0-0.3c0-0.1,0-0.2,0-0.3
			c0-0.1,0-0.1,0-0.2c0-0.1,0-0.2,0-0.3c0-0.1,0-0.2,0-0.2c0-0.1,0-0.2-0.1-0.3c0-0.1,0-0.2-0.1-0.3c0-0.1,0-0.1-0.1-0.2
			c0-0.1-0.1-0.2-0.1-0.3l0-0.1c-13.7-31.9-56.6-47.3-99.7-35.8C893,28.8,863.5,63.5,867.6,98l0,0.1c0,0.1,0,0.2,0.1,0.3
			c0,0.1,0,0.2,0,0.2c0,0.1,0,0.2,0.1,0.3c0,0.1,0.1,0.2,0.1,0.3c0,0.1,0.1,0.1,0.1,0.2c0,0.1,0.1,0.2,0.1,0.3
			c0,0.1,0.1,0.1,0.1,0.2c0,0.1,0.1,0.2,0.2,0.3c0,0.1,0.1,0.1,0.1,0.2c0.1,0.1,0.1,0.2,0.2,0.2c0.1,0.1,0.1,0.2,0.2,0.2l0.1,0.2
			c0.1,0.1,0.2,0.2,0.2,0.2l0.1,0.1c0.1,0.1,0.2,0.1,0.2,0.2l0.2,0.1c0.1,0.1,0.2,0.1,0.2,0.2c0.1,0.1,0.1,0.1,0.2,0.1
			c0.1,0,0.1,0.1,0.2,0.1c0.1,0.1,0.2,0.1,0.3,0.1l0.1,0l0.1,0.1c0.1,0,0.2,0.1,0.3,0.1c0.1,0,0.2,0.1,0.2,0.1
			c0.1,0,0.2,0.1,0.2,0.1c0.1,0,0.2,0,0.3,0.1c0.1,0,0.1,0,0.2,0c0.2,0,0.3,0,0.5,0.1l0.1,0c0.2,0,0.4,0,0.5,0l0.1,0
			c0.1,0,0.3,0,0.4,0l0.1,0l0.1,0c0.2,0,0.5-0.1,0.7-0.1l0,0c0.2,0,0.4-0.1,0.5-0.2l0.1,0c0.2-0.1,0.3-0.1,0.4-0.2l0.1-0.1
			c0.1-0.1,0.2-0.1,0.4-0.2l0.2-0.1c0.1-0.1,0.2-0.1,0.3-0.2l0.2-0.1c0.1-0.1,0.2-0.2,0.3-0.3l0.1-0.2c0.1-0.1,0.2-0.2,0.3-0.3
			l0.1-0.2c0.1-0.1,0.1-0.2,0.2-0.3l0.1-0.2c0.1-0.1,0.1-0.3,0.2-0.4l0-0.1c2.8-6,9.2-10.8,17.1-12.9c10.5-2.8,21.1,0,25.2,6.7l0,0
			l0.1,0.2c0.1,0.1,0.1,0.2,0.2,0.2l0.1,0.2c0.1,0.1,0.1,0.2,0.2,0.2l0.1,0.1c0.1,0.1,0.2,0.2,0.3,0.2l0.1,0.1
			c0.1,0.1,0.2,0.2,0.4,0.3l0,0c0.1,0.1,0.3,0.2,0.4,0.3l0,0c0.1,0.1,0.3,0.2,0.4,0.2l0.1,0.1c0.1,0,0.2,0.1,0.3,0.1l0.2,0.1
			c0.1,0,0.2,0.1,0.3,0.1c0.1,0,0.1,0,0.2,0.1c0.1,0,0.2,0,0.3,0.1c0.1,0,0.2,0,0.3,0c0.1,0,0.2,0,0.4,0l0.2,0c0.1,0,0.2,0,0.3,0
			l0.2,0c0.1,0,0.3,0,0.4,0l0.1,0c0.2,0,0.4-0.1,0.5-0.1l0,0l1.4-0.4l0,0c0.2,0,0.3-0.1,0.5-0.2l0.1,0c0.1,0,0.2-0.1,0.4-0.2
			l0.2-0.1c0.1-0.1,0.2-0.1,0.3-0.2l0.2-0.1c0.1-0.1,0.2-0.1,0.3-0.2c0.1-0.1,0.1-0.1,0.2-0.2c0.1-0.1,0.2-0.1,0.2-0.2l0.2-0.2
			c0.1-0.1,0.1-0.1,0.2-0.2l0.1-0.2c0.1-0.1,0.1-0.2,0.2-0.3l0.1-0.1c0.1-0.1,0.2-0.2,0.2-0.4l0,0c0.1-0.2,0.2-0.3,0.2-0.5l0,0
			c0.1-0.1,0.1-0.3,0.2-0.4l0-0.1c0-0.1,0.1-0.2,0.1-0.3l0-0.2c0-0.1,0-0.2,0.1-0.3c0-0.1,0-0.1,0-0.2c0-0.1,0-0.2,0-0.3
			c0-0.1,0-0.2,0-0.3l0,0c0.2-7.9,8-15.6,18.4-18.4c10.5-2.8,21.1,0,25.2,6.7l0,0c0,0.1,0.1,0.1,0.1,0.2c0.1,0.1,0.1,0.1,0.2,0.2
			l0.1,0.2c0.1,0.1,0.1,0.2,0.2,0.2l0.1,0.1c0.1,0.1,0.2,0.2,0.3,0.2l0.1,0.1c0.1,0.1,0.2,0.2,0.4,0.3l0,0c0.1,0.1,0.3,0.2,0.4,0.3
			l0,0c0.1,0.1,0.3,0.2,0.4,0.2l0.1,0.1c0.1,0,0.2,0.1,0.3,0.1l0.2,0.1c0.1,0,0.2,0.1,0.3,0.1c0.1,0,0.1,0,0.2,0.1
			c0.1,0,0.2,0,0.3,0.1c0.1,0,0.2,0,0.3,0c0.1,0,0.3,0,0.4,0h0.2c0.1,0,0.2,0,0.3,0l0.2,0c0.1,0,0.3,0,0.4,0l0.1,0
			c0.2,0,0.4-0.1,0.5-0.1l0,0l1.4-0.4l0,0c0.2,0,0.3-0.1,0.5-0.2l0.1,0c0.1,0,0.2-0.1,0.4-0.2l0.2-0.1c0.1-0.1,0.2-0.1,0.3-0.2
			l0.2-0.1c0.1-0.1,0.2-0.1,0.3-0.2c0.1-0.1,0.1-0.1,0.2-0.2c0.1-0.1,0.2-0.1,0.2-0.2l0.1-0.2c0.1-0.1,0.1-0.1,0.2-0.2l0.1-0.2
			c0.1-0.1,0.1-0.2,0.2-0.3l0.1-0.1c0.1-0.1,0.2-0.3,0.3-0.4l0,0c0.1-0.2,0.2-0.3,0.2-0.5l0,0c0.1-0.1,0.1-0.3,0.2-0.4l0-0.1
			c0-0.1,0.1-0.2,0.1-0.3l0-0.2c0-0.1,0-0.2,0.1-0.3c0-0.1,0-0.1,0-0.2c0-0.1,0-0.2,0-0.3c0-0.1,0-0.2,0-0.2v0
			c0.2-7.9,8-15.6,18.5-18.4c7.8-2.1,15.9-1.1,21.2,2.7l0.1,0c0.1,0.1,0.3,0.2,0.4,0.2l0.2,0.1c0.1,0.1,0.2,0.1,0.3,0.2
			c0.1,0,0.1,0.1,0.2,0.1c0.1,0.1,0.3,0.1,0.4,0.1c0.1,0,0.1,0,0.2,0.1c0.1,0,0.3,0.1,0.4,0.1l0.2,0c0.1,0,0.3,0,0.4,0l0.2,0
			c0.1,0,0.3,0,0.4,0l0.1,0c0.2,0,0.3,0,0.5,0l0.1,0c0.2,0,0.4-0.1,0.6-0.1l0,0c0.2-0.1,0.5-0.1,0.7-0.2l0.1,0l0.1,0
			c0.1-0.1,0.3-0.1,0.4-0.2l0.1-0.1c0.2-0.1,0.3-0.2,0.5-0.3l0.1,0c0.1-0.1,0.2-0.2,0.4-0.3l0.2-0.2c0.1-0.1,0.1-0.1,0.2-0.2
			l0.2-0.2c0.1-0.1,0.1-0.1,0.2-0.2c0.1-0.1,0.1-0.1,0.2-0.2l0.1-0.1l0.1-0.1c0.1-0.1,0.1-0.2,0.2-0.3
			C1035.5,58,1035.5,57.9,1035.5,57.9z"/>
		<path class="st1" d="M874.6,102.8c-1.2,0.3-2.6,0.2-3.8-0.3c-2.8-1.3-4-4.7-2.7-7.5c4.2-8.9,13.3-16,24.3-19c3-0.8,6.1,1,6.9,4
			c0.8,3-1,6.1-4,6.9c-7.9,2.1-14.2,6.9-17.1,12.9C877.5,101.3,876.2,102.4,874.6,102.8z"/>
		<path class="st2" d="M872.6,103C872.6,103,872.6,103,872.6,103L872.6,103L872.6,103z M872.6,103c-0.3,0-0.6-0.1-0.9-0.2
			C872,102.9,872.3,102.9,872.6,103L872.6,103z M874.5,102.8c0,0,0.1,0,0.1,0h0C874.6,102.8,874.5,102.8,874.5,102.8L874.5,102.8z
			 M875.1,102.7C875.1,102.7,875.1,102.7,875.1,102.7c0.5-0.2,0.9-0.4,1.3-0.7C876,102.3,875.5,102.5,875.1,102.7z"/>
		<path class="st2" d="M874.6,102.8L874.6,102.8C874.6,102.8,874.6,102.8,874.6,102.8c0.2,0,0.3-0.1,0.5-0.2c0,0,0,0-0.1,0
			C874.9,102.7,874.8,102.8,874.6,102.8C874.6,102.8,874.6,102.8,874.6,102.8z"/>
		<path class="st2" d="M871.7,102.8C871.7,102.8,871.7,102.8,871.7,102.8C871.7,102.8,871.7,102.8,871.7,102.8L871.7,102.8z
			 M868.4,100.3c-0.3-0.5-0.6-1.1-0.7-1.7C867.8,99.2,868.1,99.8,868.4,100.3L868.4,100.3z M878,100.3c0.1-0.2,0.2-0.3,0.3-0.5
			c0,0,0-0.1,0-0.1C878.2,99.9,878.1,100.1,878,100.3L878,100.3z M867.2,92.9c-0.7-32.8,27.9-64.7,68.8-75.7c-0.1,0-0.1,0-0.2,0
			C895,28.3,866.5,60.1,867.2,92.9L867.2,92.9z M892.5,56.5C892.5,56.5,892.5,56.5,892.5,56.5C892.5,56.5,892.5,56.5,892.5,56.5
			L892.5,56.5z M892.6,56.4C892.6,56.4,892.6,56.4,892.6,56.4C892.6,56.4,892.6,56.4,892.6,56.4L892.6,56.4z M892.6,56.3
			C892.6,56.3,892.7,56.3,892.6,56.3C892.7,56.3,892.6,56.3,892.6,56.3L892.6,56.3z M892.7,56.3C892.7,56.3,892.7,56.2,892.7,56.3
			C892.7,56.2,892.7,56.3,892.7,56.3L892.7,56.3z M892.8,56.2C892.8,56.2,892.8,56.2,892.8,56.2C892.8,56.2,892.8,56.2,892.8,56.2
			L892.8,56.2z M892.8,56.1C892.8,56.1,892.8,56.1,892.8,56.1C892.8,56.1,892.8,56.1,892.8,56.1L892.8,56.1z M892.9,56.1
			C892.9,56,892.9,56,892.9,56.1c11.2-13.1,27.6-23,46.1-28C920.4,33,904.1,42.9,892.9,56.1C892.9,56,892.9,56,892.9,56.1z"/>
		<path class="st1" d="M867.6,97.9c-0.2-1.7-0.3-3.4-0.3-5.1c-0.7-32.7,27.8-64.6,68.7-75.6c-2.9,0.9-4.6,3.9-3.8,6.8
			c0.7,2.5,2.9,4.2,5.4,4.2c0.5,0,1-0.1,1.5-0.2c-18.5,5-34.9,14.9-46,27.9c0,0,0,0-0.1,0.1c0,0,0,0,0,0c0,0,0,0-0.1,0.1
			c0,0,0,0,0,0c0,0,0,0,0,0c0,0,0,0,0,0c0,0,0,0,0,0.1c0,0,0,0,0,0c0,0,0,0,0,0c0,0,0,0,0,0c0,0,0,0,0,0.1c0,0,0,0,0,0c0,0,0,0,0,0
			c-6.7,8-11.1,16.7-13,25.5c-5,3.5-9,8-11.4,13.1C867.7,96,867.5,97,867.6,97.9z"/>
		<path class="st3" d="M873.2,103c-0.2,0-0.3,0-0.5,0l0,0c0,0,0,0,0,0c-0.3,0-0.6-0.1-0.9-0.2c0,0,0,0,0,0c0,0,0,0,0,0
			c-1.4-0.4-2.5-1.3-3.3-2.5c-0.3-0.5-0.6-1.1-0.7-1.7c0-0.2-0.1-0.4-0.1-0.6c0,0,0-0.1,0-0.1c-0.1-1,0.1-2,0.5-2.9
			c2.4-5.1,6.4-9.6,11.4-13.1c-1.1,5-1.3,9.9-0.8,14.8c0.1,1,0,2-0.4,2.9c0,0,0,0.1,0,0.1c-0.1,0.2-0.2,0.3-0.3,0.5
			c-0.4,0.7-1,1.3-1.6,1.8c-0.4,0.3-0.8,0.5-1.2,0.6c-0.2,0.1-0.3,0.1-0.5,0.2c0,0,0,0,0,0c0,0-0.1,0-0.1,0c-0.2,0-0.4,0.1-0.7,0.1
			C873.6,103,873.4,103,873.2,103z"/>
		<path class="st2" d="M1030.6,60.8c-0.1,0-0.2,0-0.3,0C1030.4,60.8,1030.5,60.8,1030.6,60.8c0.3,0,0.6,0,0.9-0.1c0,0,0.1,0,0.1,0
			C1031.3,60.8,1030.9,60.8,1030.6,60.8L1030.6,60.8z M1032.2,60.6C1032.2,60.6,1032.2,60.6,1032.2,60.6c0.2-0.1,0.4-0.1,0.5-0.2
			C1032.5,60.5,1032.4,60.6,1032.2,60.6z"/>
		<path class="st2" d="M1031.5,60.8c0.2,0,0.4-0.1,0.5-0.1c0.1,0,0.1,0,0.2-0.1c0,0,0,0-0.1,0c0,0-0.1,0-0.1,0
			C1031.9,60.7,1031.8,60.7,1031.5,60.8C1031.6,60.8,1031.5,60.8,1031.5,60.8z"/>
		<path class="st2" d="M1027.7,60c-0.1-0.1-0.2-0.1-0.3-0.2c0,0,0,0,0.1,0C1027.5,59.9,1027.6,60,1027.7,60L1027.7,60z M1034.4,59.3
			C1034.4,59.3,1034.5,59.3,1034.4,59.3C1034.5,59.3,1034.4,59.3,1034.4,59.3L1034.4,59.3z M1034.5,59.3c0.2-0.2,0.4-0.4,0.6-0.6
			C1034.9,58.9,1034.7,59.1,1034.5,59.3L1034.5,59.3z M1035.1,58.6C1035.1,58.6,1035.1,58.6,1035.1,58.6
			C1035.1,58.6,1035.1,58.6,1035.1,58.6L1035.1,58.6z M1036.2,55.8c0.1-0.9-0.1-1.8-0.4-2.6C1036.1,54,1036.3,54.9,1036.2,55.8
			L1036.2,55.8z M1035.7,53c0,0,0-0.1,0-0.1c-10.7-24.7-38.9-39.5-71-39.5c-9.3,0-18.8,1.2-28.4,3.8c-0.1,0-0.1,0-0.2,0
			c9.6-2.6,19.3-3.8,28.6-3.8C996.9,13.4,1025.1,28.2,1035.7,53L1035.7,53z M997.5,31.1C997.5,31.1,997.5,31.1,997.5,31.1
			C997.5,31.1,997.5,31.1,997.5,31.1L997.5,31.1z M997.4,31.1C997.4,31.1,997.4,31,997.4,31.1C997.4,31,997.4,31.1,997.4,31.1
			L997.4,31.1z M997.3,31C997.3,31,997.3,31,997.3,31C997.3,31,997.3,31,997.3,31L997.3,31z M997.2,31c-1.4-0.6-2.8-1.2-4.3-1.7
			C994.4,29.8,995.9,30.4,997.2,31L997.2,31z M993,29.3C992.9,29.3,992.9,29.3,993,29.3C992.9,29.3,992.9,29.3,993,29.3L993,29.3z
			 M992.8,29.2c-8.7-3.1-18.3-4.6-28.1-4.6c-8.5,0-17.2,1.1-25.7,3.4c8.6-2.3,17.3-3.4,25.7-3.4C974.5,24.6,984.1,26.2,992.8,29.2
			L992.8,29.2z"/>
		<path class="st1" d="M1035.7,52.9c-0.4-0.9-1-1.7-1.9-2.2c-4.6-3.2-10.3-5.1-16.4-5.6c-5.2-5.7-11.9-10.4-19.9-13.9c0,0,0,0,0,0
			c0,0-0.1,0-0.1,0c0,0,0,0,0,0c0,0,0,0,0,0c0,0,0,0-0.1,0c0,0,0,0,0,0c-1.4-0.6-2.8-1.2-4.3-1.7c0,0,0,0,0,0c0,0,0,0-0.1,0
			c0,0-0.1,0-0.1,0c-8.7-3.1-18.3-4.6-28.1-4.6c-8.5,0-17.2,1.1-25.7,3.4c3-0.8,4.8-3.9,4-6.9c-0.7-2.5-2.9-4.2-5.4-4.2
			c-0.4,0-0.9,0-1.3,0.2c9.6-2.6,19.2-3.8,28.4-3.8C996.8,13.4,1025,28.2,1035.7,52.9z"/>
		<path class="st4" d="M935.9,17.3c0.1,0,0.1,0,0.2,0c0.1,0,0.1,0,0.2,0c-0.1,0-0.1,0-0.2,0C936,17.2,936,17.2,935.9,17.3z"/>
		<path class="st4" d="M937.5,28.2c-2.5,0-4.7-1.7-5.4-4.2c-0.8-2.9,0.9-6,3.8-6.8c0.1,0,0.1,0,0.2,0c0.1,0,0.1,0,0.2,0
			c0.4-0.1,0.9-0.2,1.3-0.2c2.5,0,4.7,1.7,5.4,4.2c0.8,3-1,6.1-4,6.9C938.5,28.2,938,28.2,937.5,28.2z"/>
		<path class="st5" d="M1030.3,60.8c-0.9,0-1.8-0.3-2.7-0.8C1028.5,60.5,1029.4,60.8,1030.3,60.8L1030.3,60.8z M1032.7,60.4
			C1032.8,60.4,1032.8,60.4,1032.7,60.4c0.3-0.1,0.4-0.2,0.6-0.3l0,0c0.1-0.1,0.2-0.1,0.3-0.2c0.3-0.2,0.5-0.4,0.8-0.6
			C1033.9,59.8,1033.3,60.2,1032.7,60.4z"/>
		<path class="st5" d="M1033.3,60.1c0.1-0.1,0.2-0.1,0.4-0.2C1033.6,60,1033.5,60.1,1033.3,60.1L1033.3,60.1z"/>
		<path class="st5" d="M1027.3,59.8C1027.3,59.8,1027.3,59.8,1027.3,59.8C1027.3,59.8,1027.3,59.8,1027.3,59.8L1027.3,59.8z
			 M1027.3,59.8c-3.5-2.4-8.2-3.7-13.2-3.7C1019.1,56.1,1023.8,57.4,1027.3,59.8L1027.3,59.8z M1014.1,56.1L1014.1,56.1L1014.1,56.1
			L1014.1,56.1z M1003.3,46.3c3.6-1,7.3-1.5,10.9-1.5c1.1,0,2.2,0,3.2,0.1c0,0,0,0,0,0c-1.1-0.1-2.1-0.1-3.2-0.1
			C1010.6,44.9,1006.9,45.4,1003.3,46.3z"/>
		<path class="st1" d="M1027.3,59.8C1027.3,59.8,1027.3,59.8,1027.3,59.8C1027.3,59.8,1027.3,59.8,1027.3,59.8
			c-3.5-2.4-8.2-3.7-13.2-3.7h0l0,0c-2.6,0-5.3,0.3-8,1.1c3-0.8,4.8-3.9,4-6.9c-0.7-2.5-2.9-4.2-5.4-4.2c-0.5,0-1,0.1-1.5,0.2
			c3.6-1,7.3-1.4,10.9-1.4c1.1,0,2.2,0,3.2,0.1c0,0,0,0,0,0c0,0,0,0,0,0c3.4,3.8,6.1,7.9,8.1,12.4
			C1025.9,58.4,1026.5,59.2,1027.3,59.8z"/>
		<path class="st5" d="M1034.5,59.3C1034.5,59.3,1034.5,59.3,1034.5,59.3C1034.5,59.3,1034.5,59.3,1034.5,59.3L1034.5,59.3z
			 M1035,58.7C1035,58.6,1035,58.6,1035,58.7C1035,58.6,1035,58.6,1035,58.7L1035,58.7z M1035.1,58.6c0-0.1,0.1-0.1,0.1-0.2l0,0l0,0
			c0.3-0.5,0.6-1,0.8-1.6c0,0,0,0,0,0c0,0,0,0,0,0c0-0.2,0.1-0.3,0.1-0.5c0,0,0,0,0,0c0,0,0,0,0,0c0-0.2,0.1-0.3,0.1-0.5
			c0,0,0,0,0,0c-0.1,0.9-0.4,1.8-1,2.6C1035.2,58.5,1035.1,58.6,1035.1,58.6L1035.1,58.6z M1036.2,55.8L1036.2,55.8L1036.2,55.8
			C1036.2,55.8,1036.2,55.8,1036.2,55.8z"/>
		<path class="st5" d="M1035.2,58.4C1035.2,58.4,1035.2,58.4,1035.2,58.4L1035.2,58.4L1035.2,58.4L1035.2,58.4z M1036,56.9
			C1036,56.9,1036,56.8,1036,56.9C1036,56.8,1036,56.8,1036,56.9C1036,56.9,1036,56.9,1036,56.9L1036,56.9z M1036.1,56.4
			C1036.1,56.3,1036.1,56.3,1036.1,56.4C1036.1,56.3,1036.1,56.3,1036.1,56.4C1036.1,56.3,1036.1,56.4,1036.1,56.4L1036.1,56.4z
			 M1036.2,55.8C1036.2,55.8,1036.2,55.8,1036.2,55.8L1036.2,55.8C1036.2,55.8,1036.2,55.8,1036.2,55.8
			C1036.2,55.8,1036.2,55.8,1036.2,55.8z"/>
		<path class="st5" d="M1035.8,53.1c0,0,0-0.1,0-0.1c0,0,0,0,0,0C1035.8,53,1035.8,53.1,1035.8,53.1z"/>
		<path class="st6" d="M1030.6,60.8c-0.1,0-0.2,0-0.3,0c-0.9,0-1.9-0.3-2.7-0.8c-0.1-0.1-0.2-0.1-0.3-0.2c0,0,0,0-0.1,0
			c0,0,0,0,0.1,0l0.1,0c0.1,0.1,0.3,0.2,0.4,0.2l0.2,0.1c0.1,0.1,0.2,0.1,0.3,0.2c0.1,0,0.1,0.1,0.2,0.1c0.1,0.1,0.3,0.1,0.4,0.1
			c0.1,0,0.1,0,0.2,0.1c0.1,0,0.3,0.1,0.4,0.1l0.2,0c0.1,0,0.3,0,0.4,0l0.2,0C1030.4,60.8,1030.5,60.8,1030.6,60.8
			c0.1,0,0.1,0,0.2,0l0.1,0c0.2,0,0.3,0,0.5,0l0.1,0c0,0,0,0,0,0C1031.2,60.8,1030.9,60.8,1030.6,60.8L1030.6,60.8z M1032.2,60.6
			c0.2-0.1,0.3-0.1,0.5-0.2l0.1,0l0.1,0c0.1-0.1,0.3-0.1,0.4-0.2l0.1,0c-0.2,0.1-0.3,0.2-0.5,0.3c0,0-0.1,0-0.1,0
			C1032.6,60.5,1032.4,60.5,1032.2,60.6L1032.2,60.6z M1033.7,59.9c0,0,0.1,0,0.1-0.1l0.1,0c0.1-0.1,0.2-0.2,0.4-0.3l0.2-0.2
			c0.1-0.1,0.1-0.1,0.2-0.2l0.2-0.2c0.1-0.1,0.1-0.1,0.2-0.2c0.1-0.1,0.1-0.1,0.2-0.2l0.1-0.1c0,0.1-0.1,0.1-0.1,0.2c0,0,0,0,0,0
			c0,0,0,0,0,0c-0.2,0.2-0.4,0.5-0.6,0.6c0,0,0,0,0,0c0,0,0,0,0,0C1034.2,59.5,1034,59.7,1033.7,59.9L1033.7,59.9z M1035.2,58.4
			L1035.2,58.4c0.1-0.2,0.2-0.2,0.2-0.3c0-0.1,0.1-0.1,0.1-0.2c0-0.1,0.1-0.2,0.1-0.2c0-0.1,0.1-0.2,0.1-0.3c0-0.1,0.1-0.1,0.1-0.2
			c0-0.1,0.1-0.2,0.1-0.3C1035.8,57.4,1035.5,58,1035.2,58.4L1035.2,58.4z M1036,56.8c0-0.1,0-0.1,0-0.2c0-0.1,0-0.2,0.1-0.3
			C1036.1,56.5,1036,56.7,1036,56.8L1036,56.8z M1036.1,56.3c0-0.1,0-0.1,0-0.2c0-0.1,0-0.2,0-0.3
			C1036.2,56,1036.1,56.1,1036.1,56.3L1036.1,56.3z M1036.2,55.8c0-0.1,0-0.2,0-0.2c0-0.1,0-0.2,0-0.3c0-0.1,0-0.2,0-0.3
			c0-0.1,0-0.1,0-0.2c0-0.1,0-0.2,0-0.3c0-0.1,0-0.2,0-0.2c0-0.1,0-0.2-0.1-0.3c0-0.1,0-0.2-0.1-0.3c0-0.1,0-0.1-0.1-0.2
			c0-0.1-0.1-0.2-0.1-0.3l0-0.1c0,0,0-0.1-0.1-0.1c0,0,0,0.1,0,0.1c0,0,0,0,0,0c0,0,0,0.1,0,0.1C1036.1,54,1036.3,54.9,1036.2,55.8
			L1036.2,55.8z"/>
		<path class="st3" d="M1030.6,60.8c-0.1,0-0.2,0-0.2,0l-0.2,0c-0.1,0-0.2,0-0.4,0l-0.2,0c-0.1,0-0.3-0.1-0.4-0.1
			c-0.1,0-0.1,0-0.2-0.1c-0.1,0-0.3-0.1-0.4-0.1c-0.1,0-0.1-0.1-0.2-0.1c-0.1,0-0.2-0.1-0.3-0.2l-0.2-0.1c-0.1-0.1-0.3-0.2-0.4-0.2
			l-0.1,0c0,0,0,0-0.1,0c-0.8-0.6-1.5-1.4-1.9-2.3c-1.9-4.5-4.7-8.7-8.1-12.4c6.1,0.5,11.8,2.4,16.4,5.6c0.8,0.6,1.5,1.4,1.9,2.2
			c0,0,0,0.1,0.1,0.1l0,0.1c0,0.1,0.1,0.2,0.1,0.3c0,0.1,0.1,0.1,0.1,0.2c0,0.1,0,0.2,0.1,0.3c0,0.1,0,0.2,0.1,0.3
			c0,0.1,0,0.2,0,0.2c0,0.1,0,0.2,0,0.3c0,0.1,0,0.1,0,0.2c0,0.1,0,0.2,0,0.3c0,0.1,0,0.2,0,0.3c0,0.1,0,0.2,0,0.2c0,0,0,0,0,0.1
			c0,0.1,0,0.2,0,0.3c0,0.1,0,0.1,0,0.2c0,0,0,0,0,0.1c0,0.1,0,0.2-0.1,0.3c0,0.1,0,0.1,0,0.2c0,0,0,0,0,0c0,0.1-0.1,0.2-0.1,0.3
			c0,0.1,0,0.1-0.1,0.2c0,0.1-0.1,0.2-0.1,0.3c0,0.1-0.1,0.2-0.1,0.2c0,0.1-0.1,0.1-0.1,0.2c-0.1,0.1-0.1,0.2-0.2,0.3l0,0.1
			c0,0,0,0,0,0l-0.1,0.1c-0.1,0.1-0.1,0.1-0.2,0.2c-0.1,0.1-0.1,0.1-0.2,0.2l-0.2,0.2c-0.1,0.1-0.1,0.1-0.2,0.2l-0.2,0.2
			c-0.1,0.1-0.2,0.2-0.4,0.3l-0.1,0c0,0-0.1,0.1-0.1,0.1c-0.1,0.1-0.2,0.1-0.4,0.2l-0.1,0c-0.1,0.1-0.3,0.1-0.4,0.2l-0.1,0l-0.1,0
			c-0.2,0.1-0.3,0.1-0.5,0.2c-0.1,0-0.1,0-0.2,0.1c-0.2,0-0.4,0.1-0.5,0.1c0,0,0,0,0,0l-0.1,0c-0.2,0-0.3,0-0.5,0l-0.1,0
			C1030.7,60.8,1030.7,60.8,1030.6,60.8z"/>
		<path class="st5" d="M983.4,80.9l0.2,0l0,0C983.5,80.9,983.4,80.9,983.4,80.9L983.4,80.9z M983.7,80.8c0.1,0,0.3-0.1,0.4-0.1
			l0.1,0c0.1,0,0.2-0.1,0.4-0.2l0.2-0.1c0.1-0.1,0.2-0.1,0.3-0.2l0.2-0.1c0.1-0.1,0.2-0.1,0.3-0.2c0.1-0.1,0.1-0.1,0.2-0.2
			c0.1-0.1,0.2-0.1,0.2-0.2l0.1-0.2c0.1-0.1,0.1-0.1,0.2-0.2l0.1-0.1c0.1-0.1,0.1-0.2,0.2-0.3l0.1-0.1c0.1-0.1,0.2-0.3,0.3-0.4l0,0
			c0.1-0.2,0.2-0.3,0.2-0.5l0,0c0.1-0.1,0.1-0.3,0.2-0.4l0-0.1c0-0.1,0.1-0.2,0.1-0.3l0-0.2c0-0.1,0-0.2,0.1-0.3c0-0.1,0-0.1,0-0.2
			c0-0.1,0-0.2,0-0.3c0-0.1,0-0.1,0-0.2C987.6,78.1,985.9,80.1,983.7,80.8L983.7,80.8z M978.7,65.7
			C978.7,65.7,978.7,65.7,978.7,65.7c4-8.8,12.9-16.2,24.2-19.3C991.6,49.5,982.7,56.9,978.7,65.7L978.7,65.7z M1002.9,46.4
			c0,0,0.1,0,0.1,0C1003,46.4,1003,46.4,1002.9,46.4L1002.9,46.4z M1003.1,46.4c0,0,0.1,0,0.1,0
			C1003.1,46.4,1003.1,46.4,1003.1,46.4L1003.1,46.4z M1003.2,46.3C1003.2,46.3,1003.2,46.3,1003.2,46.3
			C1003.2,46.3,1003.2,46.3,1003.2,46.3z"/>
		<path class="st1" d="M982.1,81c0,0-0.1,0-0.1,0c-3.1-0.1-5.5-2.7-5.4-5.8c0.1-3.3,0.9-6.5,2.2-9.6c0,0,0,0,0,0
			c4-8.8,12.9-16.2,24.2-19.3c0,0,0,0,0,0c0,0,0.1,0,0.1,0c0,0,0,0,0,0c0,0,0.1,0,0.1,0c0,0,0,0,0,0c0,0,0,0,0.1,0
			c-3,0.8-4.8,3.9-4,6.9c0.7,2.5,2.9,4.2,5.4,4.2c0.5,0,1-0.1,1.5-0.2c-10.5,2.8-18.2,10.5-18.5,18.4c0,0,0,0,0,0c0,0.1,0,0.1,0,0.2
			c0,0.1,0,0.2,0,0.3c0,0.1,0,0.1,0,0.2c0,0.1,0,0.2-0.1,0.3l0,0.2c0,0.1-0.1,0.2-0.1,0.3l0,0.1c-0.1,0.1-0.1,0.3-0.2,0.4l0,0
			c-0.1,0.2-0.2,0.3-0.2,0.5l0,0c-0.1,0.1-0.2,0.3-0.3,0.4l-0.1,0.1c-0.1,0.1-0.1,0.2-0.2,0.3l-0.1,0.1c-0.1,0.1-0.1,0.1-0.2,0.2
			l-0.1,0.2c-0.1,0.1-0.2,0.1-0.2,0.2c-0.1,0.1-0.1,0.1-0.2,0.2c-0.1,0.1-0.2,0.1-0.3,0.2l-0.2,0.1c-0.1,0.1-0.2,0.1-0.3,0.2
			l-0.2,0.1c-0.1,0.1-0.2,0.1-0.4,0.2l-0.1,0c-0.1,0-0.3,0.1-0.4,0.1c0,0-0.1,0-0.1,0l0,0l-0.2,0C983,81,982.5,81,982.1,81z"/>
		<path class="st7" d="M1004.7,57.4c-2.5,0-4.7-1.7-5.4-4.2c-0.8-3,1-6.1,4-6.9c0.5-0.1,1-0.2,1.5-0.2c2.5,0,4.7,1.7,5.4,4.2
			c0.8,3-1,6.1-4,6.9C1005.7,57.3,1005.2,57.4,1004.7,57.4z"/>
		<path class="st1" d="M982.1,81.2c-2.3,0.6-4.9-0.3-6.2-2.5c-4.1-6.7-14.7-9.5-25.2-6.7c-3,0.8-6.1-1-6.9-4c-0.8-3,1-6.1,4-6.9
			c15.4-4.1,30.9,0.7,37.6,11.7c1.6,2.6,0.8,6.1-1.8,7.7C983.2,80.9,982.7,81.1,982.1,81.2z"/>
		<path class="st5" d="M925.3,96.3c-1.9,0-3.7-0.9-4.8-2.6l0.1,0.2c0.1,0.1,0.1,0.2,0.2,0.2l0.1,0.2c0.1,0.1,0.1,0.2,0.2,0.2
			l0.1,0.1c0.1,0.1,0.2,0.2,0.3,0.2l0.1,0.1c0.1,0.1,0.2,0.2,0.4,0.3l0,0c0.1,0.1,0.3,0.2,0.4,0.3l0,0c0.1,0.1,0.3,0.2,0.4,0.2
			l0.1,0.1c0.1,0,0.2,0.1,0.3,0.1l0.2,0.1c0.1,0,0.2,0.1,0.3,0.1c0.1,0,0.1,0,0.2,0.1c0.1,0,0.2,0,0.3,0.1c0.1,0,0.2,0,0.3,0
			c0.1,0,0.2,0,0.4,0L925.3,96.3C925.2,96.2,925.3,96.2,925.3,96.3c0.1,0,0.2,0,0.2,0l0.2,0c0.1,0,0.3,0,0.4,0l0.1,0
			c0.2,0,0.3-0.1,0.5-0.1C926.2,96.2,925.8,96.3,925.3,96.3L925.3,96.3z M926.7,96.1L926.7,96.1L926.7,96.1l0.2-0.1
			C926.9,96,926.8,96,926.7,96.1L926.7,96.1z M920.5,93.5c-3.1-4.9-9.6-7.8-17.1-7.8C910.8,85.8,917.4,88.6,920.5,93.5L920.5,93.5z
			 M903.4,85.8L903.4,85.8L903.4,85.8L903.4,85.8z M923.3,80.6c-5.4-3.9-12.4-6-20-6c-1.8,0-3.5,0.1-5.4,0.4
			c1.8-0.2,3.6-0.4,5.4-0.4C910.9,74.6,918,76.7,923.3,80.6C923.3,80.5,923.3,80.5,923.3,80.6z"/>
		<path class="st1" d="M925.3,96.2c0,0-0.1,0-0.1,0l-0.2,0c-0.1,0-0.3,0-0.4,0c-0.1,0-0.2,0-0.3,0c-0.1,0-0.2,0-0.3-0.1
			c-0.1,0-0.1,0-0.2-0.1c-0.1,0-0.2-0.1-0.3-0.1l-0.2-0.1c-0.1,0-0.2-0.1-0.3-0.1l-0.1-0.1c-0.1-0.1-0.3-0.1-0.4-0.2l0,0
			c-0.2-0.1-0.3-0.2-0.4-0.3l0,0c-0.1-0.1-0.2-0.2-0.4-0.3l-0.1-0.1c-0.1-0.1-0.2-0.2-0.3-0.2l-0.1-0.1c-0.1-0.1-0.1-0.2-0.2-0.2
			l-0.1-0.2c-0.1-0.1-0.1-0.1-0.2-0.2l-0.1-0.2c0,0,0,0,0,0c0,0,0,0,0,0c-3.1-4.9-9.6-7.8-17.1-7.8h0h0c-2.6,0-5.3,0.3-8.1,1.1
			c3-0.8,4.8-3.9,4-6.9c-0.7-2.5-2.9-4.2-5.4-4.2c-0.5,0-1,0.1-1.5,0.2c1.9-0.5,3.8-0.9,5.6-1.1c1.8-0.2,3.6-0.3,5.4-0.3
			c7.6,0,14.6,2.1,20,6c0,0,0,0,0,0c2.7,2,5,4.4,6.7,7.2c1.6,2.6,0.8,6.1-1.8,7.7c-0.4,0.2-0.8,0.4-1.3,0.6l-0.2,0l0,0c0,0,0,0,0,0
			c-0.2,0-0.3,0.1-0.5,0.1l-0.1,0c-0.1,0-0.3,0-0.4,0l-0.2,0C925.4,96.2,925.4,96.2,925.3,96.2z"/>
		<path class="st3" d="M893.9,87c-2.5,0-4.7-1.7-5.4-4.2c-0.8-3,1-6.1,4-6.9c0.5-0.1,1-0.2,1.5-0.2c2.5,0,4.7,1.7,5.4,4.2
			c0.8,3-1,6.1-4,6.9C894.8,87,894.3,87,893.9,87z"/>
		<path class="st1" d="M928.1,95.7c-0.5,0.1-1,0.2-1.6,0.2c-3.1-0.1-5.5-2.7-5.5-5.8c0.4-12.9,11.4-24.8,26.7-28.9
			c3-0.8,6.1,1,6.9,4c0.8,3-1,6.1-4,6.9c-10.5,2.8-18.2,10.5-18.4,18.4C932.2,93,930.5,95.1,928.1,95.7z"/>
		
			<ellipse transform="matrix(0.9659 -0.2587 0.2587 0.9659 20.8206 261.7119)" class="st3" cx="1004.7" cy="51.8" rx="5.6" ry="5.6"/>
		<ellipse transform="matrix(0.966 -0.2586 0.2586 0.966 26.0484 243.2529)" class="st3" cx="937.5" cy="22.6" rx="5.6" ry="5.6"/>
		<ellipse transform="matrix(0.966 -0.2587 0.2587 0.966 15.0872 247.8501)" class="st3" cx="949.3" cy="66.6" rx="5.6" ry="5.6"/>
	</g>
	<g>
		<g>
			<path class="st8" d="M796.5,245.4h3.1c2.7,0,7.4,0,7.4,5.7c0,3.9-2.3,5.6-7.1,5.6c-0.4,0-0.9,0-1.4-0.1v6.4h-2V245.4z
				 M798.5,255.1c0.4,0.1,0.8,0.1,1.2,0.1c3.6,0,5.2-1.3,5.2-4.3c0-2.7-1.7-4-5-4c-0.4,0-0.9,0-1.3,0.1V255.1z"/>
			<path class="st8" d="M809.7,263v-17.6h2v16.1h6.3v1.6H809.7z"/>
			<path class="st8" d="M826.4,245.4L831,263h-2.3l-1.2-4.5h-5.1l-1.3,4.5H819l4.6-17.6H826.4z M822.6,257h4.8l-1-3.7
				c-0.5-2-0.9-4.1-1.1-6.2h-0.8c-0.2,2.1-0.5,4.2-1,6.2L822.6,257z"/>
			<path class="st8" d="M835.2,263V247h-4.7v-1.6h11.3v1.6h-4.6V263H835.2z"/>
			<path class="st8" d="M848.6,245.4l4.6,17.6H851l-1.2-4.5h-5.1l-1.3,4.5h-2.1l4.6-17.6H848.6z M844.8,257h4.8l-1-3.7
				c-0.5-2-0.9-4.1-1.1-6.2h-0.8c-0.2,2.1-0.5,4.2-1,6.2L844.8,257z"/>
			<path class="st8" d="M855.9,245.4h9v1.5h-7v6h6.7v1.6h-6.7v8.6h-2V245.4z"/>
			<path class="st8" d="M879.6,254.1c0,6.2-2.1,9.3-6.3,9.3c-4.2,0-6.4-3.2-6.4-9.3c0-6.1,2.2-9.2,6.4-9.2
				C877.4,245,879.6,248.1,879.6,254.1z M868.9,254.2c0,5.2,1.4,7.7,4.3,7.7c2.8,0,4.3-2.4,4.3-7.2c0-5.5-1.2-8.1-4.3-8.1
				C870.3,246.6,868.9,249.1,868.9,254.2z"/>
			<path class="st8" d="M886.6,245.4c3.3,0,6.1,1.2,6.1,4.9c0,2.2-1.3,3.9-3.8,4.8l5.2,8h-2.4l-4.5-7.2h-2.7v7.2h-2v-17.6H886.6z
				 M884.6,254.3c0.4,0,0.7,0,1,0c3.3,0,4.9-1.2,4.9-3.9c0-2.5-1.5-3.6-4.6-3.6c-0.4,0-0.8,0-1.3,0.1V254.3z"/>
			<path class="st8" d="M899.2,245.4l2.8,9.8c0.5,1.6,0.8,3.4,1.2,5.2h0.5c0.4-2.1,0.8-3.9,1.2-5.3l2.8-9.7h3.3V263h-1.9v-10.6
				c0-0.5,0.1-2.4,0.4-5.7h-0.4l-4.7,16.3h-1.6l-4.8-16.3h-0.4c0.3,2.2,0.4,3.9,0.4,5.2v11h-1.9v-17.6H899.2z"/>
			<path class="st8" d="M920.7,245.4l4.6,17.6H923l-1.2-4.5h-5.1l-1.3,4.5h-2.1l4.6-17.6H920.7z M916.9,257h4.8l-1-3.7
				c-0.5-2-0.9-4.1-1.1-6.2h-0.8c-0.2,2.1-0.5,4.2-1,6.2L916.9,257z"/>
			<path class="st8" d="M937.8,245.4c5.4,0,7.8,2.9,7.8,8.8c0,6-2.5,8.8-7.7,8.8h-4v-17.6H937.8z M935.9,261.5
				c0.4,0,0.8,0.1,1.2,0.1c4.6,0,6.4-2.2,6.4-7.5c0-5-1.9-7.2-6.4-7.2c-0.4,0-0.7,0-1.1,0V261.5z"/>
			<path class="st8" d="M948.6,263v-17.6h9v1.5h-7v6h6.7v1.6h-6.7v7h7.4v1.6H948.6z"/>
			<path class="st8" d="M970.1,245.4c4.3,0,6.3,1.3,6.3,4.3c0,1.9-1.1,3.3-3,3.8v0.2c2.4,0.7,3.7,2.3,3.7,4.5c0,3.3-2.2,4.9-6.6,4.9
				h-3.9v-17.6H970.1z M968.5,253.1c0.5,0,1,0.1,1.4,0.1c2.9,0,4.3-0.9,4.3-3.1c0-2.1-1.4-3.1-4.3-3.1c-0.4,0-0.9,0-1.5,0.1V253.1z
				 M968.5,261.4c0.6,0.1,1.2,0.1,1.7,0.1c3.3,0,4.8-0.9,4.8-3.3c0-2.4-1.7-3.6-5.1-3.6c-0.4,0-0.9,0-1.4,0.1V261.4z"/>
			<path class="st8" d="M980,263v-17.6h9v1.5h-7v6h6.7v1.6H982v7h7.4v1.6H980z"/>
			<path class="st8" d="M994.6,245.4l5.2,10.2c0.7,1.4,1.2,2.8,1.5,4.4h0.5c-0.2-2.3-0.4-3.9-0.4-4.8v-9.7h1.9V263h-1.8l-6.2-12.4
				c-0.5-1-0.9-2.2-1.2-3.8h-0.5c0.2,2,0.3,3.5,0.3,4.4V263H992v-17.6H994.6z"/>
			<path class="st8" d="M1007,263v-17.6h9v1.5h-7v6h6.7v1.6h-6.7v7h7.4v1.6H1007z"/>
			<path class="st8" d="M1019,245.4h9v1.5h-7v6h6.7v1.6h-6.7v8.6h-2V245.4z"/>
			<path class="st8" d="M1037.1,261.7v1.3h-7.5v-1.3h2.8v-15h-2.8v-1.3h7.5v1.3h-2.8v15H1037.1z M1036.9,240.4c-1.5,0.8-2.9,1.9-4,3
				h-1.4V243c1.1-0.9,2-2,2.8-3.3h2.6V240.4z"/>
			<path class="st8" d="M1050.1,259.2v2.5c-1.7,1.2-3.2,1.7-4.9,1.7c-3.9,0-6.3-3.3-6.3-9.3c0-5.9,2.5-9.1,6.5-9.1
				c1.5,0,3,0.6,4.7,1.7v2.5h-1.3c-0.8-1.7-1.8-2.5-3.4-2.5c-2.8,0-4.3,2.7-4.3,7.8c0,4.9,1.6,7.4,4.4,7.4c1.7,0,2.8-0.9,3.4-2.6
				H1050.1z"/>
			<path class="st8" d="M1059.2,261.7v1.3h-7.5v-1.3h2.8v-15h-2.8v-1.3h7.5v1.3h-2.8v15H1059.2z"/>
			<path class="st8" d="M1073.8,254.1c0,6.2-2.1,9.3-6.3,9.3c-4.2,0-6.4-3.2-6.4-9.3c0-6.1,2.2-9.2,6.4-9.2
				C1071.6,245,1073.8,248.1,1073.8,254.1z M1063.1,254.2c0,5.2,1.4,7.7,4.3,7.7c2.8,0,4.3-2.4,4.3-7.2c0-5.5-1.2-8.1-4.3-8.1
				C1064.5,246.6,1063.1,249.1,1063.1,254.2z"/>
			<path class="st8" d="M1077.7,259.7c0.8,1.5,1.8,2.2,3.4,2.2c2.1,0,3.5-1.3,3.5-3.2c0-2.2-1.6-2.7-4.3-4c-2.7-1.3-3.9-2.6-3.9-5
				c0-2.6,2.1-4.6,4.9-4.6c1.8,0,3.3,0.5,4.7,1.5v2.2h-1.4c-0.8-1.5-1.8-2.2-3.1-2.2c-1.8,0-3,1.3-3,3c0,1.5,0.9,2.4,2.8,3.3
				c1.7,0.8,3.1,1.3,4,2.2c1,1,1.5,2.2,1.5,3.5c0,2.8-2.3,4.9-5.9,4.9c-1.6,0-3-0.4-4.5-1.2v-2.6H1077.7z"/>
			<path class="st8" d="M886.6,289v-17.6h9v1.5h-7v6h6.7v1.6h-6.7v7h7.4v1.6H886.6z"/>
			<path class="st8" d="M905.2,285.7c0.8,1.5,1.8,2.2,3.4,2.2c2.1,0,3.5-1.3,3.5-3.2c0-2.2-1.6-2.7-4.3-4c-2.7-1.3-3.9-2.6-3.9-5
				c0-2.6,2.1-4.6,4.9-4.6c1.8,0,3.3,0.5,4.7,1.5v2.2H912c-0.8-1.5-1.8-2.2-3.1-2.2c-1.8,0-3,1.3-3,3c0,1.5,0.9,2.4,2.8,3.3
				c1.7,0.8,3.1,1.3,4,2.2c1,1,1.5,2.2,1.5,3.5c0,2.8-2.3,4.9-5.9,4.9c-1.6,0-3-0.4-4.5-1.2v-2.6H905.2z"/>
			<path class="st8" d="M917,289v-17.6h9v1.5h-7v6h6.7v1.6H919v7h7.4v1.6H917z"/>
			<path class="st8" d="M933,271.4c3.3,0,6.1,1.2,6.1,4.9c0,2.2-1.3,3.9-3.8,4.8l5.2,8h-2.4l-4.5-7.2h-2.7v7.2h-2v-17.6H933z
				 M930.9,280.3c0.4,0,0.7,0,1,0c3.3,0,4.9-1.2,4.9-3.9c0-2.5-1.5-3.6-4.6-3.6c-0.4,0-0.8,0-1.3,0.1V280.3z"/>
			<path class="st8" d="M943.3,271.4l2.6,10.9c0.2,1,0.5,2.6,0.9,5h0.4c0.5-3.1,0.8-4.9,0.8-5.2l2.6-10.6h2.3L948,289h-2l-5-17.6
				H943.3z"/>
			<path class="st8" d="M962,287.7v1.3h-7.5v-1.3h2.8v-15h-2.8v-1.3h7.5v1.3h-2.8v15H962z"/>
			<path class="st8" d="M975,275.1h-1.3c-0.8-1.7-1.8-2.5-3.4-2.5c-2.8,0-4.3,2.7-4.3,7.9c0,4.8,1.6,7.3,4.4,7.3
				c1.7,0,2.8-0.9,3.4-2.6h1.3v2.5c-1.6,1.2-3.1,1.7-4.9,1.7v0.9h0.3c1.9,0,2.8,0.8,2.8,2.1c0,1.4-1.1,2.2-3.1,2.2
				c-0.9,0-1.9-0.2-3.1-0.5V293c1.3,0.3,2.3,0.4,3.1,0.4c1,0,1.5-0.3,1.5-1.1s-0.5-1.1-1.6-1.1c-0.2,0-0.4,0-0.7,0l0-1.9
				c-3.4-0.5-5.4-3.7-5.4-9.3c0-5.9,2.5-9.1,6.5-9.1c1.5,0,3,0.6,4.7,1.7V275.1z"/>
			<path class="st8" d="M989.7,280.1c0,6.2-2.1,9.3-6.3,9.3c-4.2,0-6.4-3.2-6.4-9.3s2.2-9.2,6.4-9.2
				C987.5,271,989.7,274.1,989.7,280.1z M979,280.2c0,5.2,1.4,7.7,4.3,7.7c2.8,0,4.3-2.4,4.3-7.2c0-5.5-1.2-8.1-4.3-8.1
				C980.4,272.6,979,275.1,979,280.2z"/>
			<path class="st8" d="M993.6,285.7c0.8,1.5,1.8,2.2,3.4,2.2c2.1,0,3.5-1.3,3.5-3.2c0-2.2-1.6-2.7-4.3-4c-2.7-1.3-3.9-2.6-3.9-5
				c0-2.6,2.1-4.6,4.9-4.6c1.8,0,3.3,0.5,4.7,1.5v2.2h-1.4c-0.8-1.5-1.8-2.2-3.1-2.2c-1.8,0-3,1.3-3,3c0,1.5,0.9,2.4,2.8,3.3
				c1.7,0.8,3.1,1.3,4,2.2c1,1,1.5,2.2,1.5,3.5c0,2.8-2.3,4.9-5.9,4.9c-1.6,0-3-0.4-4.5-1.2v-2.6H993.6z"/>
		</g>
	</g>
</g>
<g>
	<g>
		<path class="st0" d="M289.1,216.9c-30.1,0-37.6-20.4-37.6-41.5c0-24,11.6-40.7,38.6-40.7c5.4,0,15,1.8,20.5,3.3l-5.6,15.3
			c-4.7-2.1-9.5-4.5-14.9-4.5c-10.6,0-19.8,3.9-19.8,26.6c0,18.8,4.6,27.4,19,27.4c5.4,0,7.5-0.1,10.9-2.2v-15.3h-17.3v-14.1h33.6
			v38.6C308.5,214.7,301.8,216.9,289.1,216.9z"/>
		<polygon class="st0" points="325.6,214.5 325.6,136.3 343.9,136.3 343.9,200 374.8,200 374.8,214.5 		"/>
		<path class="st0" d="M414.8,216.9c-29.2,0-38.4-17.6-38.4-41.2c0-22.8,10-41.1,38.5-41.1c27.8,0,37.9,16.8,37.9,41.1
			C452.9,198.9,443.2,216.9,414.8,216.9L414.8,216.9z M414.8,148.8L414.8,148.8c-12.3,0-19.4,6.5-19.4,26.9c0,21.9,7,27,19.4,27
			c13,0,19.1-7.8,19.1-27C433.9,154.9,426.8,148.8,414.8,148.8z"/>
		<path class="st0" d="M494.8,215.3l-34.8-0.6l1.4-78.1l30.8,0.5c14.2,0.2,26.2,5.7,25.9,22.4c-0.1,8.2-5.5,13.3-12.7,15
			c9.6,1.1,15.9,6.9,15.8,18C520.8,210.4,508.3,215.5,494.8,215.3L494.8,215.3z M491.9,151.2L491.9,151.2l-12.4-0.2l-0.3,16.8
			l14.1,0.2c3.7,0.1,6.1-3.2,6.2-8.7C499.5,156.9,498.7,151.3,491.9,151.2L491.9,151.2z M493.3,182L493.3,182l-14.4-0.3l-0.3,19.1
			l15.7,0.3c3.7,0.1,8-2.5,8.1-8.9C502.6,185.1,498.5,182.1,493.3,182z"/>
		<g>
			<defs>
				<path id="SVGID_5_" d="M494.8,215.3l-34.8-0.6l1.4-78.1l30.8,0.5c14.2,0.2,26.2,5.7,25.9,22.4c-0.1,8.2-5.5,13.3-12.7,15
					c9.6,1.1,15.9,6.9,15.8,18C520.8,210.4,508.3,215.5,494.8,215.3L494.8,215.3z M491.9,151.2L491.9,151.2l-12.4-0.2l-0.3,16.8
					l14.1,0.2c3.7,0.1,6.1-3.2,6.2-8.7C499.5,156.9,498.7,151.3,491.9,151.2L491.9,151.2z M493.3,182L493.3,182l-14.4-0.3l-0.3,19.1
					l15.7,0.3c3.7,0.1,8-2.5,8.1-8.9C502.6,185.1,498.5,182.1,493.3,182z"/>
			</defs>
			<clipPath id="SVGID_6_">
				<use xlink:href="#SVGID_5_"  style="overflow:visible;"/>
			</clipPath>
		</g>
		<path class="st0" d="M579.3,214.5l-6.3-19.7h-25.8l-6.5,19.7H521l31.8-78.1h17.4l29.5,78.1H579.3L579.3,214.5z M560.6,156.1
			L560.6,156.1l-8.3,24.8h16.1L560.6,156.1z"/>
		<polygon class="st0" points="604.9,214.5 604.9,136.3 623.2,136.3 623.2,200 654.1,200 654.1,214.5 		"/>
	</g>
	<g>
		<path class="st9" d="M248,102.7h0.3l17.1-52.9h23.2v75.6h-17.6V76.6l-0.3-0.1l-16.7,48.8h-11.8l-16.4-48l-0.3,0.1v48h-17.6V49.7
			h23L248,102.7z"/>
		<path class="st9" d="M344.9,93h-26.6v18.9h31.9v13.5h-49.5V49.7h49.5v13.5h-32v16.3h26.6V93z"/>
		<path class="st9" d="M377.6,96.4v29H360V49.7h26.3c8.8,0,15.7,2,20.8,6.1c5.1,4.1,7.7,9.6,7.7,16.6c0,3.9-1,7.3-3.1,10.1
			c-2.1,2.8-5.1,5.1-9.1,6.9c4.6,1.3,8,3.5,10,6.6s3,6.9,3,11.5v4.8c0,2,0.3,4.2,0.9,6.8c0.6,2.5,1.6,4.3,3.1,5.4v1h-18.1
			c-1.4-1.1-2.3-3-2.7-5.7c-0.4-2.7-0.6-5.2-0.6-7.6v-4.6c0-3.6-1-6.4-2.9-8.3c-1.9-1.9-4.7-2.9-8.4-2.9H377.6z M377.6,82.9h8.9
			c3.5,0,6.2-0.8,8.1-2.4s2.8-3.9,2.8-6.9c0-3.1-1-5.6-2.9-7.5c-1.9-1.9-4.6-2.8-8.1-2.8h-8.8V82.9z"/>
		<path class="st9" d="M485.9,99.9l0.1,0.3c0.1,8.6-2.3,15.2-7.3,19.6c-5,4.4-12.1,6.7-21.3,6.7c-9.3,0-16.9-2.9-22.5-8.6
			s-8.5-13.2-8.5-22.4V79.7c0-9.2,2.7-16.7,8.2-22.4c5.5-5.7,12.7-8.6,21.6-8.6c9.6,0,17,2.2,22.3,6.7c5.2,4.5,7.8,11,7.7,19.5
			l-0.2,0.3h-17.1c0-4.6-1-8-3-10c-2-2-5.2-3-9.7-3c-3.9,0-7,1.6-9.1,4.8c-2.1,3.2-3.2,7.4-3.2,12.6v15.9c0,5.3,1.2,9.5,3.5,12.7
			c2.3,3.2,5.6,4.8,10,4.8c4,0,6.9-1,8.7-3c1.8-2,2.7-5.4,2.7-10.1H485.9z"/>
		<path class="st9" d="M535.3,110.7h-22.5l-4.4,14.7H490l24.7-75.6h9.4v0.1l0.1-0.1h9.4l24.7,75.6h-18.5L535.3,110.7z M516.9,97.2
			h14.4l-7.1-23.5h-0.3L516.9,97.2z"/>
		<path class="st9" d="M563.6,125.4V49.7h27.7c8.9,0,16.3,2.9,22.3,8.7c6,5.8,9,13.2,9,22.3v13.6c0,9.1-3,16.5-9,22.3
			c-6,5.8-13.4,8.7-22.3,8.7H563.6z M581.1,63.2v48.6h10.1c4,0,7.3-1.6,9.8-4.9c2.6-3.3,3.9-7.5,3.9-12.6V80.6
			c0-5.1-1.3-9.3-3.9-12.5c-2.6-3.3-5.9-4.9-9.8-4.9H581.1z"/>
		<path class="st9" d="M695.9,94.3c0,9.3-3,17-8.9,23c-5.9,6-13.6,9.1-23.1,9.1c-9.6,0-17.4-3-23.3-9.1c-6-6-8.9-13.7-8.9-23V80.7
			c0-9.3,3-16.9,8.9-23c5.9-6.1,13.7-9.1,23.2-9.1c9.5,0,17.2,3,23.2,9.1c6,6.1,8.9,13.7,8.9,23V94.3z M678.4,80.6
			c0-5.4-1.3-9.8-3.8-13.3c-2.5-3.5-6.1-5.2-10.8-5.2c-4.7,0-8.4,1.7-10.9,5.2c-2.5,3.4-3.8,7.9-3.8,13.3v13.7
			c0,5.5,1.3,9.9,3.8,13.4c2.5,3.5,6.2,5.2,10.9,5.2c4.6,0,8.2-1.7,10.7-5.2c2.5-3.5,3.8-7.9,3.8-13.4V80.6z"/>
	</g>
	<g>
		<path class="st10" d="M53.9,136.5c0-5.5-5.5-10.2-13.5-12.6c-10-2.8-14.8-2.5-24,0C8.5,126,3,131,3,136.5c0,7.1,9,9.3,20.8,9.7
			l0,0.1h9.4l0-0.1C55,145.4,53.9,139.3,53.9,136.5z"/>
		<path class="st10" d="M39.7,107.8c0,7.8-6.4,14.2-14.2,14.2c-7.8,0-14.2-6.4-14.2-14.2c0-7.9,6.4-14.2,14.2-14.2
			C33.4,93.6,39.7,99.9,39.7,107.8z"/>
		<path class="st10" d="M139.3,136.5c0-5.5-5.5-10.2-13.5-12.6c-10-2.8-14.8-2.5-24,0c-7.9,2.1-13.5,7.1-13.5,12.6
			c0,7.1,9,9.3,20.8,9.7l0,0.1h9.4l0-0.1C140.3,145.4,139.3,139.3,139.3,136.5z"/>
		<path class="st10" d="M128,107.8c0,7.8-6.4,14.2-14.2,14.2c-7.8,0-14.2-6.4-14.2-14.2c0-7.9,6.4-14.2,14.2-14.2
			C121.6,93.6,128,99.9,128,107.8z"/>
		<path class="st5" d="M109.4,144.1c0-8.1-8.1-15-19.8-18.6c-14.7-4.1-21.7-3.6-35.4,0c-11.7,3.1-19.8,10.5-19.8,18.6
			c0,10.4,13.2,13.7,30.6,14.3l0,0.1h13.8l0-0.1C111,157.2,109.4,148.2,109.4,144.1z"/>
		<path class="st5" d="M92.8,101.8c0,11.5-9.3,20.9-20.9,20.9c-11.5,0-20.9-9.3-20.9-20.9c0-11.5,9.3-20.9,20.9-20.9
			C83.4,80.9,92.8,90.3,92.8,101.8z"/>
		<polygon class="st5" points="156.8,165.9 147.6,180.5 118.5,162.1 127.8,147.5 		"/>
		<path class="st1" d="M110.6,61.5C77,40.2,32.6,50.1,11.2,83.6c-21.3,33.5-11.4,78,22.1,99.3c33.5,21.3,78,11.4,99.3-22.1
			C154,127.3,144.1,82.8,110.6,61.5L110.6,61.5z M117.4,151.1c-15.9,25.1-49.2,32.5-74.3,16.6C18,151.7,10.6,118.5,26.5,93.4
			c15.9-25.1,49.2-32.5,74.3-16.6C125.9,92.8,133.3,126,117.4,151.1z"/>
		<path class="st5" d="M153.2,148.1c-2.1,0.5-3.8,1.7-4.8,3.4L130.9,179c-1.1,1.7-1.5,3.7-1,5.8c0.5,2.1,1.7,3.8,3.4,4.8l25.7-40.5
			C157.3,148,155.3,147.6,153.2,148.1z"/>
		<path class="st5" d="M184.8,219.7c2.1-0.5,3.8-1.7,4.8-3.4l17.5-27.5c1.1-1.7,1.5-3.7,1-5.8c-0.5-2.1-1.7-3.8-3.4-4.8L179,218.7
			C180.7,219.7,182.7,220.1,184.8,219.7z"/>
		<polygon class="st1" points="133.2,189.6 179,218.7 204.7,178.2 159,149.1 		"/>
		<ellipse transform="matrix(0.966 -0.2586 0.2586 0.966 -22.9629 7.7029)" class="st11" cx="17.8" cy="91.1" rx="8.1" ry="8"/>
		<ellipse transform="matrix(0.966 -0.2587 0.2587 0.966 -19.2847 35.6635)" class="st11" cx="125.9" cy="91.1" rx="8.1" ry="8"/>
		<ellipse transform="matrix(0.966 -0.2586 0.2586 0.966 -45.4146 25.0068)" class="st11" cx="72.3" cy="185.1" rx="8.1" ry="8"/>
	</g>
	<g>
		<path class="st12" d="M225.3,235.3c4.4,0,8.2,1.6,8.2,6.5c0,3-1.7,5.2-5,6.4l6.9,10.7h-3.2l-6-9.6h-3.6v9.6H220v-23.5H225.3z
			 M222.7,247.1c0.5,0,0.9,0,1.4,0c4.5,0,6.5-1.5,6.5-5.1c0-3.3-1.9-4.8-6.2-4.8c-0.5,0-1.1,0-1.7,0.1V247.1z"/>
		<path class="st12" d="M238,258.8v-23.5H250v2h-9.4v8h8.9v2.1h-8.9v9.3h9.9v2.1H238z"/>
		<path class="st12" d="M259.1,235.3c7.2,0,10.4,3.9,10.4,11.7c0,8-3.4,11.8-10.3,11.8H254v-23.5H259.1z M256.6,256.8
			c0.6,0,1.1,0.1,1.6,0.1c6.1,0,8.5-3,8.5-10c0-6.7-2.5-9.6-8.6-9.6c-0.5,0-1,0-1.5,0V256.8z"/>
		<path class="st12" d="M273.5,258.8v-23.5h12.1v2h-9.4v8h8.9v2.1h-8.9v9.3h9.9v2.1H273.5z"/>
		<path class="st12" d="M302.6,235.3c7.2,0,10.4,3.9,10.4,11.7c0,8-3.4,11.8-10.3,11.8h-5.3v-23.5H302.6z M300.1,256.8
			c0.6,0,1.1,0.1,1.6,0.1c6.1,0,8.5-3,8.5-10c0-6.7-2.5-9.6-8.6-9.6c-0.5,0-1,0-1.5,0V256.8z"/>
		<path class="st12" d="M317,258.8v-23.5H329v2h-9.4v8h8.9v2.1h-8.9v9.3h9.9v2.1H317z"/>
		<path class="st12" d="M354.9,253.7v3.4c-2.2,1.5-4.2,2.3-6.6,2.3c-5.2,0-8.4-4.4-8.4-12.4c0-7.8,3.4-12.2,8.7-12.2
			c2.1,0,4,0.8,6.2,2.2v3.3h-1.8c-1-2.3-2.4-3.4-4.5-3.4c-3.7,0-5.8,3.6-5.8,10.4c0,6.6,2.2,9.9,5.8,9.9c2.2,0,3.7-1.2,4.5-3.5
			H354.9z"/>
		<path class="st12" d="M374.5,246.9c0,8.3-2.8,12.4-8.5,12.4c-5.6,0-8.5-4.2-8.5-12.3s2.9-12.2,8.5-12.2
			C371.5,234.8,374.5,238.9,374.5,246.9z M360.2,247c0,6.9,1.8,10.2,5.7,10.2c3.7,0,5.7-3.2,5.7-9.6c0-7.3-1.7-10.8-5.7-10.8
			C362.1,236.9,360.2,240.2,360.2,247z"/>
		<path class="st12" d="M382.6,235.3l3.7,13.1c0.6,2.2,1.1,4.5,1.5,6.9h0.6c0.5-2.8,1.1-5.2,1.6-7.1l3.7-12.9h4.4v23.5h-2.6v-14.1
			c0-0.7,0.2-3.2,0.5-7.6h-0.6l-6.3,21.7h-2.2l-6.3-21.7h-0.5c0.4,2.9,0.5,5.2,0.5,7v14.7h-2.6v-23.5H382.6z"/>
		<path class="st12" d="M403,258.8v-23.5H415v2h-9.4v8h8.9v2.1h-8.9v9.3h9.9v2.1H403z M413.3,228.6c-2.1,1.1-3.9,2.5-5.3,4h-1.8V232
			c1.5-1.2,2.7-2.7,3.7-4.4h3.5V228.6z"/>
		<path class="st12" d="M424.3,235.3c4.4,0,8.2,1.6,8.2,6.5c0,3-1.7,5.2-5,6.4l6.9,10.7h-3.2l-6-9.6h-3.6v9.6H419v-23.5H424.3z
			 M421.6,247.1c0.5,0,0.9,0,1.4,0c4.5,0,6.5-1.5,6.5-5.1c0-3.3-1.9-4.8-6.2-4.8c-0.5,0-1.1,0-1.7,0.1V247.1z"/>
		<path class="st12" d="M450.9,253.7v3.4c-2.2,1.5-4.2,2.3-6.6,2.3c-5.2,0-8.4-4.4-8.4-12.4c0-7.8,3.4-12.2,8.7-12.2
			c2.1,0,4,0.8,6.2,2.2v3.3h-1.8c-1-2.3-2.4-3.4-4.5-3.4c-3.7,0-5.8,3.6-5.8,10.4c0,6.6,2.2,9.9,5.8,9.9c2.2,0,3.7-1.2,4.5-3.5
			H450.9z"/>
		<path class="st12" d="M463,257v1.8h-10V257h3.7v-20H453v-1.8h10v1.8h-3.7v20H463z"/>
		<path class="st12" d="M482.5,246.9c0,8.3-2.8,12.4-8.5,12.4c-5.6,0-8.5-4.2-8.5-12.3s2.9-12.2,8.5-12.2
			C479.5,234.8,482.5,238.9,482.5,246.9z M468.2,247c0,6.9,1.8,10.2,5.7,10.2c3.7,0,5.7-3.2,5.7-9.6c0-7.3-1.7-10.8-5.7-10.8
			C470.1,236.9,468.2,240.2,468.2,247z"/>
		<path class="st12" d="M509,258.8h-2.4v-1.9l-0.4,0c-1.8,1.6-3.5,2.4-5.1,2.4c-4.8,0-7.6-4.3-7.6-12.3c0-8.2,3-12.3,9-12.3
			c2.3,0,4.3,0.7,6.5,2.1v3.3h-1.8c-1-2.3-2.6-3.4-4.9-3.4c-4.1,0-6,3.4-6,10.3c0,6.7,1.8,10.1,5.4,10.1c1.8,0,3.3-0.8,4.6-2.4v-2.7
			c0-1.3,0.1-2.1,0.5-3h-6.1V247h8.4V258.8z"/>
		<path class="st12" d="M514,258.8v-23.5h2.7v21.4h8.4v2.1H514z"/>
		<path class="st12" d="M544,246.9c0,8.3-2.8,12.4-8.5,12.4c-5.6,0-8.5-4.2-8.5-12.3s2.9-12.2,8.5-12.2
			C541.1,234.8,544,238.9,544,246.9z M529.8,247c0,6.9,1.8,10.2,5.7,10.2c3.7,0,5.7-3.2,5.7-9.6c0-7.3-1.7-10.8-5.7-10.8
			C531.6,236.9,529.8,240.2,529.8,247z"/>
		<path class="st12" d="M552.7,235.3c5.8,0,8.4,1.8,8.4,5.7c0,2.5-1.5,4.4-4,5.1v0.3c3.2,0.9,4.9,3,4.9,6c0,4.4-2.9,6.5-8.8,6.5H548
			v-23.5H552.7z M550.6,245.5c0.7,0,1.3,0.1,1.9,0.1c3.9,0,5.8-1.2,5.8-4.1c0-2.8-1.9-4.2-5.7-4.2c-0.6,0-1.3,0-2,0.1V245.5z
			 M550.6,256.7c0.8,0.1,1.5,0.1,2.2,0.1c4.4,0,6.4-1.2,6.4-4.4c0-3.2-2.2-4.9-6.8-4.9c-0.6,0-1.2,0-1.9,0.1V256.7z"/>
		<path class="st12" d="M574.7,235.3l6.2,23.5h-3.1l-1.6-6h-6.8l-1.7,6h-2.8l6.1-23.5H574.7z M569.6,250.7h6.4l-1.3-4.9
			c-0.7-2.7-1.2-5.4-1.4-8.2h-1.1c-0.2,2.8-0.6,5.5-1.3,8.2L569.6,250.7z"/>
		<path class="st12" d="M584.3,258.8v-23.5h2.7v21.4h8.4v2.1H584.3z"/>
		<path class="st12" d="M606.3,235.3h4.1c3.6,0,9.9,0,9.9,7.6c0,5.2-3.1,7.5-9.5,7.5c-0.6,0-1.2,0-1.9-0.1v8.5h-2.7V235.3z
			 M609,248.2c0.6,0.1,1.1,0.1,1.6,0.1c4.8,0,6.9-1.7,6.9-5.7c0-3.6-2.2-5.3-6.7-5.3c-0.6,0-1.2,0-1.8,0.1V248.2z"/>
		<path class="st12" d="M623.8,258.8v-23.5h12.1v2h-9.4v8h8.9v2.1h-8.9v9.3h9.9v2.1H623.8z"/>
		<path class="st12" d="M648.1,235.3l6.2,23.5h-3.1l-1.6-6h-6.8l-1.7,6h-2.8l6.1-23.5H648.1z M643.1,250.7h6.4l-1.3-4.9
			c-0.7-2.7-1.2-5.4-1.4-8.2h-1.1c-0.2,2.8-0.6,5.5-1.3,8.2L643.1,250.7z"/>
		<path class="st12" d="M671.1,253.7v3.4c-2.2,1.5-4.2,2.3-6.6,2.3c-5.2,0-8.4-4.4-8.4-12.4c0-7.8,3.4-12.2,8.7-12.2
			c2.1,0,4,0.8,6.2,2.2v3.3h-1.8c-1-2.3-2.4-3.4-4.5-3.4c-3.7,0-5.8,3.6-5.8,10.4c0,6.6,2.2,9.9,5.8,9.9c2.2,0,3.7-1.2,4.5-3.5
			H671.1z"/>
		<path class="st12" d="M674.6,258.8v-23.5h12.1v2h-9.4v8h8.9v2.1h-8.9v9.3h9.9v2.1H674.6z"/>
	</g>
</g>
<line class="st13" x1="761.7" y1="36.3" x2="761.7" y2="271.7"/>
</svg>
